<svg width="433" height="433" xmlns="http://www.w3.org/2000/svg">
 <style type="text/css">.st0{fill:#4B4B4B;}</style>

 <g>
  <title>background</title>
  <rect fill="none" id="canvas_background" height="435" width="435" y="-1" x="-1"/>
 </g>
 <g>
  <title>Layer 1</title>
  <g stroke="null" id="svg_1">
   <path stroke="null" id="svg_2" fill=" rgb(0, 0, 0)" d="m-5,-27.995l0,467.99101l448.000038,0l0,-16.517082l0,-451.473927l-448.000038,0zm416.37666,434.955931l-384.753282,0l0,-333.109425l384.753282,0l0,333.109425z" class="st0"/>
   <rect stroke="null" id="svg_3" fill=" rgb(0, 0, 0)" height="108.743096" width="121.219885" class="st0" y="255.261537" x="253.259772"/>
   <rect stroke="null" id="svg_4" fill=" rgb(0, 0, 0)" height="16.517996" width="142.296887" class="st0" y="256.906847" x="63.519506"/>
   <rect stroke="null" id="svg_5" fill=" rgb(0, 0, 0)" height="16.517082" width="142.296887" class="st0" y="345.842241" x="63.519506"/>
   <rect stroke="null" id="svg_6" fill=" rgb(0, 0, 0)" height="16.517082" width="142.296887" class="st0" y="301.378657" x="63.519506"/>
   <path stroke="null" id="svg_7" fill=" rgb(0, 0, 0)" d="m65.519756,217.460544l31.863128,0c18.158002,0 29.152377,-8.258541 29.152377,-25.550747c0,-10.444061 -5.68225,-17.678854 -11.241126,-19.8726l0,-0.258679c5.558875,-3.225721 9.758876,-9.161633 9.758876,-18.702602c0,-13.944915 -8.524251,-23.356087 -26.798627,-23.356087l-32.734628,0c-0.73325,0 -1.227625,0.516444 -1.227625,1.28974l0,85.153009c-0.000875,0.781522 0.4935,1.297967 1.227625,1.297967zm16.931251,-71.619422c0,-0.508218 0.231,-0.773296 0.741125,-0.773296l12.846751,0c6.909876,0 10.985626,3.742166 10.985626,10.186296c0,6.459669 -4.07575,10.330718 -10.985626,10.330718l-12.846751,0c-0.510125,0 -0.741125,-0.257765 -0.741125,-0.773296l0,-18.970422zm0,35.091716c0,-0.508218 0.231,-0.765983 0.741125,-0.765983l13.819751,0c7.427876,0 11.372376,4.257696 11.372376,10.976959c0,6.830778 -3.9445,10.968732 -11.372376,10.968732l-13.819751,0c-0.510125,0 -0.741125,-0.265992 -0.741125,-0.782436l0,-20.397271z" class="st0"/>
   <path stroke="null" id="svg_8" fill=" rgb(0, 0, 0)" d="m150.792013,217.460544l54.731255,0c0.734125,0 1.227625,-0.516444 1.227625,-1.297967l0,-14.316024c0,-0.78335 -0.4935,-1.290654 -1.227625,-1.290654l-37.058003,0c-0.50225,0 -0.742,-0.257765 -0.742,-0.782436l0,-68.763896c0,-0.773296 -0.4865,-1.28974 -1.234625,-1.28974l-15.696626,0c-0.74025,0 -1.22675,0.516444 -1.22675,1.28974l0,85.153009c0,0.781522 0.4865,1.297967 1.22675,1.297967z" class="st0"/>
   <path stroke="null" id="svg_9" fill=" rgb(0, 0, 0)" d="m253.236147,218.871854c14.707876,0 26.312127,-7.089457 30.635503,-21.284825c1.85325,-6.063881 2.33975,-10.968732 2.33975,-24.001414c0,-13.033596 -0.4865,-17.937533 -2.33975,-24.002328c-4.3225,-14.186227 -15.926751,-21.283911 -30.635503,-21.283911c-14.699126,0 -26.311252,7.097684 -30.626753,21.283911c-1.86025,6.064795 -2.354625,10.968732 -2.354625,24.002328c0,13.032682 0.494375,17.937533 2.354625,24.001414c4.3155,14.196282 15.927626,21.284825 30.626753,21.284825zm-13.216876,-64.126864c1.852375,-6.063881 6.307001,-9.677164 13.216876,-9.677164c6.917751,0 11.364501,3.613283 13.217751,9.677164c0.987875,3.105065 1.358875,7.348136 1.358875,18.840625c0,11.476036 -0.371,15.742873 -1.358875,18.832399c-1.85325,6.073021 -6.300001,9.694531 -13.217751,9.694531c-6.909876,0 -11.364501,-3.62151 -13.216876,-9.694531c-0.980875,-3.089526 -1.358875,-7.356363 -1.358875,-18.832399c0,-11.492489 0.378,-15.73556 1.358875,-18.840625z" class="st0"/>
   <path stroke="null" id="svg_10" fill=" rgb(0, 0, 0)" d="m340.996029,218.871854c14.815501,0 26.427627,-7.863667 30.635503,-21.937464c1.474375,-4.765914 2.085125,-11.99248 2.085125,-19.734577l0,-7.234793c0,-0.758671 -0.494375,-1.282428 -1.227625,-1.282428l-28.897752,0c-0.749875,0 -1.243375,0.524671 -1.243375,1.282428l0,12.404722c0,0.765983 0.4935,1.281514 1.243375,1.281514l11.356626,0c0.4935,0 0.74025,0.266906 0.74025,0.77421c0,3.733939 -0.371,6.451443 -0.987875,8.653416c-1.729,5.799717 -7.164501,9.033665 -13.464501,9.033665c-7.288751,0 -11.866751,-3.62151 -13.720001,-9.694531c-0.98,-3.089526 -1.351,-7.356363 -1.351,-18.832399c0,-11.493403 0.371,-15.61399 1.351,-18.710829c1.85325,-6.065709 6.307876,-9.806961 13.480251,-9.806961c6.909876,0 11.102001,3.096839 14.445376,9.032751c0.24675,0.645327 0.8645,0.903092 1.736875,0.645327l13.209876,-5.806116c0.734125,-0.387562 0.87325,-1.160857 0.494375,-1.943294c-3.96025,-10.582084 -14.205626,-18.69529 -29.886503,-18.69529c-14.954626,0 -26.565877,7.097684 -30.889253,21.283911c-1.85325,6.064795 -2.3555,10.968732 -2.3555,24.002328c0,13.032682 0.50225,17.937533 2.3555,24.001414c4.323375,14.194453 15.934626,21.282997 30.889253,21.282997z" class="st0"/>
  </g>
 </g>
</svg>