<?xml version="1.0" encoding="iso-8859-1"?>
<!-- Generator: Adobe Illustrator 16.0.0, SVG Export Plug-In . SVG Version: 6.00 Build 0)  -->
<!DOCTYPE svg PUBLIC "-//W3C//DTD SVG 1.1//EN" "http://www.w3.org/Graphics/SVG/1.1/DTD/svg11.dtd">
<svg version="1.1" id="Capa_1" xmlns="http://www.w3.org/2000/svg" xmlns:xlink="http://www.w3.org/1999/xlink" x="0px" y="0px"
	 width="564.452px" height="564.452px" viewBox="0 0 564.452 564.452" style="enable-background:new 0 0 564.452 564.452;"
	 xml:space="preserve">
<g>
	<g>
		<path d="M282.221,0C126.356,0,0,126.357,0,282.229c0,155.867,126.356,282.224,282.221,282.224
			c155.869,0,282.231-126.356,282.231-282.224C564.452,126.357,438.09,0,282.221,0z M282.221,531.597
			c-137.502,0-249.368-111.868-249.368-249.368c0-137.505,111.871-249.368,249.368-249.368s249.365,111.863,249.365,249.368
			C531.586,419.734,419.718,531.597,282.221,531.597z"/>
		<path d="M140.206,154.614c-3.723-2.965-7.159-4.36-10.287-4.184c-3.132,0.173-5.784,1.618-7.933,4.321
			c-2.151,2.708-2.97,5.626-2.429,8.765c0.541,3.135,2.677,6.188,6.426,9.167c3.682,2.933,7.154,4.306,10.405,4.117
			c3.25-0.187,5.921-1.592,8.005-4.21c2.089-2.615,2.854-5.52,2.307-8.696S143.985,157.615,140.206,154.614z"/>
		<path d="M282.221,166.019c50.525,0,93.504,32.26,109.505,77.299h130.509C503.552,127.683,403.039,39.085,282.216,39.085
			c-120.827,0-221.334,88.598-240.014,204.233h130.506C188.712,198.278,231.688,166.019,282.221,166.019z M457.487,163.746
			l4.028,7.104l-15.772,28.49l24.161-13.686l3.842,6.786l-36.174,20.49l-4.153-7.33l15.338-27.944l-23.592,13.362l-3.842-6.78
			L457.487,163.746z M417.678,133.182c2.195-0.732,4.474-1.066,6.825-0.997c2.335,0.073,4.474,0.551,6.379,1.437
			c2.563,1.17,4.981,3.001,7.265,5.497c4.138,4.518,6.054,9.419,5.728,14.701c-0.316,5.274-2.978,10.201-7.964,14.771
			c-4.956,4.533-10.051,6.734-15.322,6.602c-5.256-0.132-9.952-2.449-14.074-6.957c-4.174-4.555-6.1-9.456-5.778-14.693
			c0.311-5.232,2.915-10.089,7.798-14.561C411.65,136.118,414.7,134.189,417.678,133.182z M403.428,108.785l-3.604,6.045
			l-19.262-11.485l-4.729,7.92l17.933,10.68l-3.578,6.02L372.25,117.28l-5.794,9.725l19.956,11.881l-3.594,6.02l-27.153-16.185
			l21.276-35.716L403.428,108.785z M327.268,75.029l11.972,3.824l-1.439,29.306l15.731-24.747l12.003,3.829l-12.655,39.603
			l-7.426-2.369l9.952-31.177l-17.812,28.668l-7.699-2.454l2.117-33.681l-9.952,31.172l-7.426-2.369L327.268,75.029z
			 M255.846,71.886l7.265,28.319l6.589-28.806l9.98-0.347l8.296,28.772l5.364-29.249l8.445-0.297l-8.637,41.901l-8.904,0.313
			l-9.364-30.771l-7.159,31.354l-9.098,0.318l-11.379-41.205L255.846,71.886z M205.53,95.736c0.282-2.307,0.95-4.497,2.012-6.592
			c1.064-2.095,2.418-3.811,4.034-5.165c2.149-1.808,4.847-3.213,8.07-4.215c5.854-1.808,11.104-1.438,15.744,1.103
			c4.629,2.545,7.943,7.053,9.942,13.518c1.983,6.411,1.792,11.967-0.572,16.663c-2.367,4.704-6.476,7.954-12.303,9.758
			c-5.901,1.823-11.156,1.473-15.762-1.051c-4.598-2.529-7.871-6.951-9.831-13.276C205.61,102.437,205.17,98.854,205.53,95.736z
			 M175.191,100.492l16.687,29.883l18.229-10.175l3.415,6.115l-25.554,14.269l-20.107-36.003L175.191,100.492z M124.358,218.598
			L87.14,200.055l12.705-25.51l6.299,3.141l-8.966,17.994l8.806,4.391l7.741-15.529l6.299,3.133l-7.736,15.537l15.806,7.878
			L124.358,218.598z M150.026,177.033c-3.85,4.841-8.383,7.513-13.605,8.016c-5.222,0.505-10.426-1.3-15.599-5.424
			c-3.314-2.636-5.701-5.344-7.164-8.127c-1.066-2.058-1.75-4.253-2.058-6.576c-0.292-2.327-0.153-4.507,0.424-6.537
			c0.759-2.711,2.186-5.388,4.301-8.039c3.811-4.792,8.352-7.443,13.61-7.954c5.261-0.507,10.538,1.341,15.832,5.556
			c5.251,4.184,8.231,8.883,8.919,14.095C155.388,167.254,153.827,172.253,150.026,177.033z M137.609,128.203l6.467-5.347
			l21.797,26.391l16.094-13.298l4.461,5.398l-22.564,18.644L137.609,128.203z"/>
		<path d="M420.019,167.005c3.23-0.042,6.617-1.691,10.175-4.948c3.516-3.218,5.421-6.395,5.748-9.512
			c0.326-3.123-0.689-5.965-3.02-8.515c-2.335-2.551-5.095-3.809-8.284-3.765c-3.18,0.041-6.525,1.675-10.057,4.903
			c-3.469,3.177-5.375,6.39-5.695,9.634c-0.326,3.247,0.652,6.1,2.91,8.57C414.053,165.843,416.798,167.052,420.019,167.005z"/>
		<path d="M221.315,112.925c2.791,1.683,5.797,2.027,8.984,1.041c3.203-0.992,5.465-2.954,6.807-5.89
			c1.336-2.938,1.289-6.708-0.122-11.312c-1.416-4.549-3.456-7.64-6.144-9.264c-2.695-1.624-5.686-1.923-8.989-0.901
			c-3.309,1.018-5.621,2.975-6.946,5.869c-1.326,2.89-1.271,6.623,0.127,11.195C216.428,108.159,218.522,111.245,221.315,112.925z"
			/>
		<path d="M282.221,398.437c-50.528,0-93.509-32.26-109.507-77.31H42.202c18.68,115.653,119.192,204.251,240.019,204.251
			c120.823,0,221.331-88.598,240.014-204.251H391.726C375.725,366.177,332.746,398.437,282.221,398.437z M166.544,433.011
			c-2.042,0.771-4.072,1.01-6.076,0.729c-2.022-0.284-4.021-1.164-5.989-2.641c-1.225-0.927-4.002-3.376-8.303-7.348l-11.319-10.594
			l31.118-33.26l13.29,12.448c2.636,2.46,4.495,4.407,5.582,5.841c1.087,1.43,1.82,2.962,2.185,4.619
			c0.37,1.646,0.35,3.365-0.046,5.168c-0.404,1.791-1.274,3.412-2.62,4.847c-1.453,1.554-3.213,2.589-5.271,3.106
			c-2.056,0.518-4.104,0.425-6.152-0.27c1.476,2.486,2.09,4.951,1.852,7.395c-0.238,2.439-1.261,4.619-3.053,6.535
			C170.313,431.1,168.584,432.239,166.544,433.011z M202.625,462.552l-28.065-15.514l21.847-39.529l8.055,4.442l-18.134,32.829
			l20.006,11.05L202.625,462.552z M261.296,455.935c-1.786,7.135-5.126,12.23-10.015,15.285c-4.891,3.056-10.573,3.77-17.069,2.134
			c-6.568-1.646-11.293-4.961-14.162-9.942c-2.869-4.976-3.426-10.978-1.66-18.015c1.124-4.5,2.752-8.104,4.862-10.822
			c1.569-1.998,3.446-3.671,5.636-5.018c2.19-1.356,4.422-2.206,6.708-2.548c3.042-0.476,6.361-0.259,9.963,0.643
			c6.512,1.631,11.208,4.955,14.103,9.979C262.56,442.637,263.105,448.742,261.296,455.935z M302.765,476.522
			c-3.599,1.569-7.27,2.423-11.019,2.568c-4.754,0.187-8.948-0.643-12.565-2.496s-6.39-4.598-8.319-8.254
			c-1.931-3.635-2.98-7.643-3.156-12.013c-0.194-4.743,0.631-8.989,2.478-12.749c1.833-3.77,4.629-6.711,8.378-8.829
			c2.855-1.631,6.462-2.531,10.802-2.708c5.654-0.228,10.117,0.782,13.391,3.024c3.257,2.247,5.441,5.438,6.519,9.579l-9.062,2.082
			c-0.74-2.211-2.014-3.925-3.826-5.147c-1.828-1.222-4.06-1.791-6.711-1.678c-4.019,0.161-7.159,1.564-9.422,4.205
			c-2.271,2.636-3.304,6.462-3.097,11.47c0.212,5.4,1.574,9.398,4.083,12.019c2.509,2.599,5.717,3.826,9.605,3.66
			c1.921-0.077,3.842-0.533,5.748-1.361c1.9-0.834,3.531-1.812,4.867-2.951l-0.228-5.769l-10.522,0.424l-0.311-7.674l19.807-0.792
			l0.73,18.129C309.077,473.203,306.349,474.964,302.765,476.522z M357.275,462.588c-2.988,2.532-6.271,4.406-9.813,5.629
			c-4.51,1.554-8.756,1.952-12.753,1.217c-3.998-0.74-7.446-2.579-10.341-5.515c-2.895-2.941-5.044-6.473-6.473-10.604
			c-1.538-4.484-1.973-8.793-1.289-12.925c0.684-4.143,2.521-7.757,5.499-10.864c2.272-2.382,5.463-4.276,9.579-5.686
			c5.35-1.843,9.911-2.154,13.691-0.947c3.774,1.207,6.772,3.641,8.994,7.307l-8.078,4.582c-1.336-1.91-3.055-3.185-5.152-3.837
			c-2.097-0.652-4.396-0.544-6.902,0.321c-3.801,1.311-6.405,3.552-7.829,6.731c-1.408,3.185-1.305,7.146,0.326,11.879
			c1.761,5.116,4.215,8.56,7.363,10.33c3.153,1.776,6.565,2.035,10.258,0.771c1.823-0.632,3.521-1.615,5.105-2.962
			c1.59-1.341,2.858-2.755,3.827-4.22l-1.88-5.463l-9.963,3.423l-2.49-7.26l18.75-6.442l5.893,17.155
			C362.381,457.602,360.273,460.056,357.275,462.588z M379.147,453.707l-25.684-37.613l27.885-19.045l4.339,6.358l-20.288,13.856
			l5.686,8.337l18.895-12.898l4.324,6.333l-18.89,12.898l6.99,10.247l21.013-14.354l4.329,6.333L379.147,453.707z M404.681,372.991
			c2.066-1.134,4.318-1.513,6.773-1.145c2.443,0.373,4.691,1.435,6.721,3.205c2.579,2.242,4.055,4.847,4.412,7.829
			c0.362,2.982-0.549,6.168-2.734,9.569c2.186-0.745,4.215-1.149,6.121-1.217c1.895-0.067,4.898,0.233,9.01,0.901l10.355,1.631
			l-7.213,8.301l-11.842-1.486c-4.226-0.539-6.965-0.776-8.233-0.73c-1.264,0.047-2.351,0.337-3.241,0.845
			c-0.901,0.507-2.041,1.563-3.429,3.158l-1.222,1.408l14.354,12.475l-6.037,6.943l-34.373-29.878l12.702-14.607
			C400,376.522,402.63,374.109,404.681,372.991z"/>
		<path d="M176.942,407.643c0.953-1.024,1.458-2.123,1.489-3.303c0.031-1.171-0.445-2.352-1.437-3.532
			c-0.588-0.698-2.47-2.526-5.636-5.479l-3.855-3.619l-7.195,7.7l4.401,4.111c2.62,2.454,4.28,3.936,4.979,4.453
			c1.279,0.942,2.555,1.388,3.834,1.346C174.793,409.279,175.927,408.72,176.942,407.643z"/>
		<path d="M404.67,400.497l4.469-5.147c2.9-3.324,4.552-5.52,4.997-6.597c0.436-1.071,0.523-2.144,0.238-3.21
			c-0.279-1.066-0.942-2.046-1.968-2.946c-1.159-1-2.355-1.507-3.604-1.507c-1.253,0-2.465,0.481-3.625,1.439
			c-0.569,0.497-2.081,2.154-4.525,4.966l-4.707,5.411L404.67,400.497z"/>
		<path d="M160.55,410.02l-5.419-5.074l-8.318,8.891l6.213,5.82c2.418,2.258,4.021,3.635,4.8,4.102
			c1.17,0.756,2.39,1.071,3.674,0.952c1.282-0.108,2.486-0.761,3.583-1.937c0.935-0.999,1.486-2.071,1.659-3.216
			c0.166-1.154-0.062-2.314-0.683-3.484C165.446,414.893,163.605,412.878,160.55,410.02z"/>
		<path d="M243.729,435.294c-3.664-0.932-6.952-0.403-9.831,1.543c-2.884,1.958-4.968,5.479-6.24,10.563
			c-1.253,5.002-1.046,9.083,0.614,12.241c1.66,3.169,4.274,5.193,7.832,6.084c3.557,0.891,6.789,0.337,9.714-1.651
			c2.928-1.988,5.028-5.541,6.31-10.667c1.274-5.064,1.108-9.118-0.486-12.169C250.044,438.194,247.411,436.216,243.729,435.294z"/>
		<polygon points="458.274,304.743 467.605,314.074 476.926,304.743 490.12,304.743 490.12,291.55 499.45,282.229 490.12,272.896 
			490.12,259.707 476.926,259.707 467.605,250.376 458.274,259.707 445.08,259.707 445.08,272.896 435.749,282.229 445.08,291.55 
			445.08,304.743 		"/>
		<polygon points="83.792,304.743 93.126,314.074 102.441,304.743 115.641,304.743 115.641,291.55 124.966,282.229 115.641,272.896 
			115.641,259.707 102.441,259.707 93.126,250.376 83.792,259.707 70.601,259.707 70.601,272.896 61.271,282.229 70.601,291.55 
			70.601,304.743 		"/>
		<path d="M366.591,262.379c-3.231-2.522-19.537,0.165-23.929-3.822c-3.122-2.869-3.608-8.034-4.541-15.011
			c-1.75-13.575-2.868-14.263-4.971-18.846c-7.695-16.309-28.532-28.581-42.85-30.276h-38.776
			c-30.504,0-55.442,24.989-55.442,55.496v64.734c0,30.442,24.938,55.385,55.442,55.385h63.719c30.51,0,55.292-24.942,55.463-55.385
			l0.347-44.84l-0.522-2.449l-1.476-3.055L366.591,262.379z M252.229,239.776h30.75c5.856,0,10.615,4.761,10.615,10.579
			c0,5.794-4.749,10.615-10.615,10.615h-30.75c-5.864,0-10.615-4.821-10.615-10.615
			C241.614,244.542,246.365,239.776,252.229,239.776z M314.706,324.399h-62.477c-5.864,0-10.615-4.826-10.615-10.563
			c0-5.82,4.751-10.563,10.615-10.563h62.477c5.83,0,10.562,4.743,10.562,10.563C325.274,319.573,320.536,324.399,314.706,324.399z"
			/>
	</g>
</g>
<g>
</g>
<g>
</g>
<g>
</g>
<g>
</g>
<g>
</g>
<g>
</g>
<g>
</g>
<g>
</g>
<g>
</g>
<g>
</g>
<g>
</g>
<g>
</g>
<g>
</g>
<g>
</g>
<g>
</g>
</svg>
