<svg width="433" height="433" xmlns="http://www.w3.org/2000/svg">
 <style type="text/css">.st0{fill:#4B4B4B;}</style>

 <g>
  <title>background</title>
  <rect fill="none" id="canvas_background" height="435" width="435" y="-1" x="-1"/>
 </g>
 <g>
  <title>Layer 1</title>
  <g stroke="null" transform="rotate(0.04171504080295563 216.49165344244727,216.99456787108943) " id="svg_1">
   <path stroke="null" id="svg_2" fill=" rgb(0, 0, 0)" d="m428.4136,161.748721c-3.157979,-1.104817 -6.666245,0.376869 -7.844649,3.28866c-1.72629,4.224592 -3.64928,7.682136 -5.670171,10.438354c-1.740661,2.417618 -3.550481,4.302795 -5.374672,5.772001c0,-0.156405 0.014371,-0.325289 0.014371,-0.480861c0,-4.212113 -0.603573,-7.942533 -1.768504,-11.231193c-1.740661,-4.940061 -4.79984,-8.852676 -8.617079,-11.400077c-3.802868,-2.574023 -8.25242,-3.717941 -12.490004,-3.717941c-4.659725,0 -9.19191,1.351903 -12.911247,3.873514c-1.852932,1.300323 -3.522637,2.87269 -4.841156,4.732076c-1.291574,1.871866 -2.245434,4.029918 -2.722365,6.343544c-0.210173,1.092338 -0.308972,2.183843 -0.308972,3.249559c0,3.431753 1.024816,6.707934 2.708892,9.632204c2.497821,4.406787 6.427331,8.111417 11.227172,10.801912c2.77895,1.573199 5.908187,2.794487 9.220651,3.535746c-0.1967,0.156405 -0.379029,0.325289 -0.575729,0.494172c-5.037856,3.847724 -11.98523,7.071492 -19.324208,9.281125c-17.065301,-21.838431 -42.129737,-38.087055 -71.194639,-47.459694l0,32.822538l-125.141647,0l0,-31.158657c-9.977812,3.341072 -19.872094,7.422571 -29.541832,12.400901c-9.458668,4.874338 -17.907788,9.931702 -25.625795,14.988235c-20.826852,-23.216124 -73.257744,-27.09047 -66.50707,-9.034039c6.119258,16.365928 15.114467,34.304223 19.310735,44.938083c-15.760254,12.296908 -30.327734,21.838431 -49.483983,25.140402c-17.472174,3.015783 -22.678887,7.305267 -19.395163,23.138753l7.227604,52.971298c0,0 20.405609,10.905904 27.618842,14.623845c15.956954,8.150518 47.308607,25.946552 93.676825,39.179393l17.585343,51.058667l43.982669,0l0,-38.477235c17.556602,2.262045 36.446094,3.588158 56.711587,3.588158c10.525698,0 20.419082,-0.649745 29.709791,-1.885177l0,36.774254l43.982669,0l20.433452,-59.328153c48.627126,-31.821714 60.626727,-88.783829 43.434783,-134.540541c-2.638834,-7.045702 -6.006986,-13.701224 -9.949969,-20.018978c6.568344,-2.236255 12.855561,-5.148046 18.244603,-8.891777c4.041782,-2.782008 7.606633,-6.044878 10.301154,-9.865979c0.266758,-0.376869 0.533515,-0.741259 0.771531,-1.130607c0.421243,-0.129783 0.85596,-0.233775 1.291574,-0.376869c5.066598,-1.650569 9.992183,-4.692975 14.300722,-9.138031c4.32291,-4.432578 8.069193,-10.26947 11.087056,-17.665419c1.176608,-2.911791 -0.42304,-6.17466 -3.553175,-7.266166zm-353.332563,115.353504c-6.469545,0 -11.732843,-4.861859 -11.732843,-10.867635c0,-5.992465 5.2624,-10.867635 11.732843,-10.867635c6.483916,0 11.732843,4.874338 11.732843,10.867635c0,6.005776 -5.248927,10.867635 -11.732843,10.867635zm322.177611,-93.567485c-0.070058,0.910143 -0.238914,1.767873 -0.463458,2.625603c-0.112272,0 -0.238914,0 -0.351186,0c-2.442134,0 -4.855527,-0.44176 -7.115332,-1.2737c-3.368151,-1.22212 -6.32943,-3.276181 -8.322478,-5.564016c-0.982602,-1.143918 -1.754133,-2.340248 -2.231064,-3.484166c-0.491301,-1.143918 -0.730215,-2.236255 -0.730215,-3.223768c0,-0.41597 0.056585,-0.818629 0.126642,-1.208809c0.168857,-0.845251 0.491301,-1.546577 0.968231,-2.248734c0.688001,-0.988345 1.740661,-1.846075 3.087921,-2.495821c1.319417,-0.623955 2.891221,-0.988345 4.435182,-0.988345c1.262832,0 2.512192,0.233775 3.677123,0.702158c0.87033,0.351079 1.684076,0.83194 2.455607,1.481686c1.164931,0.988345 2.273278,2.391828 3.129237,4.471679c0.842487,2.06654 1.445162,4.836069 1.445162,8.436706c0.000898,0.858562 -0.041316,1.807806 -0.111374,2.769529z" class="st0"/>
   <path stroke="null" id="svg_3" fill=" rgb(0, 0, 0)" d="m256.638773,100.081152c-1.207145,2.079851 -2.863378,3.834412 -4.954326,5.252039c-2.090948,1.430105 -4.60314,2.495821 -7.536576,3.184667c-1.277203,0.298667 -2.610093,0.506652 -3.971724,0.663056l0,7.877642l-10.146669,0l0,-7.695447c-2.891221,-0.233775 -5.641429,-0.649745 -8.25242,-1.326113c-3.971724,-1.000824 -9.19191,-5.069844 -9.19191,-5.069844c-0.434716,-0.233775 -0.743688,-0.676367 -0.800273,-1.143918s0.112272,-0.961723 0.47693,-1.2737l5.094441,-4.705454c0.546988,-0.506652 1.389475,-0.610644 2.048734,-0.221296c0,0 3.802868,3.029094 6.70846,3.769521c2.87685,0.727948 5.740228,1.104817 8.589235,1.104817c3.607066,0 6.581817,-0.584854 8.939523,-1.767873c2.372077,-1.183019 3.537008,-3.015783 3.537008,-5.537394c0,-1.793663 -0.561359,-3.223768 -1.740661,-4.277005c-1.164931,-1.039925 -3.115765,-1.66388 -5.894714,-1.962547l-9.121852,-0.727948c-5.389042,-0.494172 -9.557467,-1.871866 -12.46216,-4.173012c-2.946908,-2.301147 -4.40644,-5.772001 -4.40644,-10.412564c0,-2.574023 0.575729,-4.861859 1.698447,-6.876818s2.666678,-3.717941 4.60314,-5.108945c1.950833,-1.377693 4.224111,-2.417618 6.820731,-3.133087c1.06703,-0.272876 2.20322,-0.480861 3.353781,-0.637266l0,-6.798616l10.146669,0l0,6.668833c2.372077,0.207985 4.630984,0.545753 6.721932,1.092338c3.564852,0.896832 7.312032,3.613948 7.312032,3.613948c0.463458,0.233775 0.785902,0.649745 0.87033,1.130607c0.070058,0.480861 -0.097901,0.961723 -0.47693,1.312802l-4.771997,4.48499c-0.491301,0.480861 -1.291574,0.610644 -1.936463,0.298667c0,0 -2.821164,-1.858554 -5.2624,-2.456719c-2.442134,-0.584854 -5.010013,-0.896832 -7.704534,-0.896832c-3.522637,0 -6.119258,0.649745 -7.816806,1.897656c-1.684076,1.24791 -2.526563,2.86021 -2.526563,4.887649c0,1.820285 0.603573,3.172188 1.796347,4.173012c1.207145,0.961723 3.228036,1.598989 6.077043,1.858554l7.985663,0.623955c5.922558,0.494172 10.399055,1.950068 13.430392,4.393476c3.045707,2.417618 4.560926,5.953364 4.560926,10.607238c0,2.796151 -0.603573,5.213769 -1.796347,7.306931z" class="st0"/>
   <path stroke="null" id="svg_4" fill=" rgb(0, 0, 0)" d="m235.110447,4.017846c-47.13975,0 -85.354348,35.409872 -85.354348,79.073423c0,43.651072 38.214598,79.034321 85.354348,79.034321c47.126277,0 85.340875,-35.38325 85.340875,-79.034321c0,-43.663551 -38.214598,-79.073423 -85.340875,-79.073423zm0,145.758423c-39.701973,0 -72.008384,-29.910747 -72.008384,-66.685001c0,-36.800044 32.306411,-66.724102 72.008384,-66.724102s72.008384,29.924058 72.008384,66.724102c0,36.774254 -32.306411,66.685001 -72.008384,66.685001z" class="st0"/>
   <path stroke="null" id="svg_5" fill=" rgb(0, 0, 0)" d="m237.103494,29.937776l0.070058,0c1.445162,0 2.624464,-1.053236 2.68015,-2.378517c0.056585,-1.365214 -1.094874,-2.509132 -2.567879,-2.560712l-0.281128,0l0,0l-0.027843,0l0,0l-0.027843,0l-0.014371,0l-0.014371,0l-0.014371,0l0,0l-0.056585,0l0,0l-0.027843,0l0,0c-0.406873,0 -0.785902,-0.02579 -1.179302,-0.02579l-0.070058,0l-0.014371,0l-0.014371,0l0,0l-0.056585,0l-0.014371,0l0,0l-0.014371,-0.013311l-0.027843,0l-0.014371,0l0,0l-0.027843,0l-0.027843,0l-0.014371,0l0,0l-0.027843,0l-0.014371,0l-0.014371,0l-0.027843,0l-0.014371,0l-0.014371,0l-0.027843,0l0,0l-0.042214,0l0,0l-0.027843,0l0,0l-0.027843,0l-0.027843,0l-0.014371,0l-0.014371,0l-0.014371,0l-0.027843,0l0,0l-0.027843,0l0,0l-0.027843,0l-0.014371,0l-0.014371,0l-0.014371,0l-0.027843,0l0,0l-0.027843,0l0,0l-0.027843,0l-0.027843,0l0,0l-0.014371,0l-0.027843,0l0,0l-0.027843,0.013311l0,0l-0.042214,0l0,0l-0.014371,0l-0.014371,0l-0.027843,0l0,0l-0.027843,0l0,0l-0.027843,0l-0.014371,0l-0.027843,0l0,0l-0.027843,0l-0.014371,0l-0.014371,0l0,0l-0.027843,0l-0.014371,0l-0.027843,0l-0.014371,0l-0.014371,0l-0.014371,0l-0.014371,0l0,0l-0.042214,0l0,0l-0.014371,0l-0.014371,0l-0.027843,0l-0.014371,0l-0.014371,0l-0.014371,0l-0.027843,0.02579l0,0l-0.014371,0l-0.014371,0l-0.014371,0l-0.014371,0l-0.027843,0l-0.014371,0l-0.014371,0l-0.014371,0l-0.027843,0l0,0l-0.014371,0l-0.027843,0l-0.014371,0l0,0l-0.042214,0l0,0l-0.027843,0l0,0l-0.014371,0l-0.027843,0l-0.014371,0l0,0l-0.027843,0l-0.027843,0l-0.014371,0l-0.014371,0l0,0l-0.027843,0l-0.014371,0l-0.014371,0l-0.027843,0l0,0l-0.014371,0l-0.027843,0l0,0l-0.027843,0l-0.014371,0l-0.014371,0l-0.014371,0l-0.014371,0l-0.027843,0l0,0l-0.042214,0l0,0l-0.014371,0l-0.014371,0l-0.014371,0l-0.014371,0l-0.027843,0l0,0l-0.014371,0l-0.027843,0l-0.014371,0l-0.014371,0l-0.027843,0l-0.014371,0l-0.014371,0l0,0l-0.027843,0l-0.014371,0l-0.014371,0l0,0l-0.027843,0l-0.027843,0l-0.014371,0l0,0l-0.014371,0l-0.027843,0l-0.014371,0l0,0l-0.027843,0l-0.014371,0l-0.014371,0l-0.014371,0l-0.014371,0l-0.027843,0l-0.014371,0l0,0l-0.027843,0l-0.014371,0l-0.014371,0.02579l-0.014371,0l-0.014371,0l-0.027843,0l-0.014371,0l0,0l-0.027843,0l-0.027843,0l0,0l-0.014371,0l-0.027843,0l0,0l-0.027843,0l0,0l-0.042214,0l0,0l-0.014371,0l-0.014371,0l-0.027843,0l0,0l-0.014371,0l-0.014371,0l-0.042214,0l0,0l-0.014371,0l-0.014371,0l-0.014371,0l-0.014371,0l-0.027843,0l0,0l-0.027843,0l-0.014371,0l-0.014371,0l-0.014371,0l-0.027843,0l0,0l-0.027843,0l0,0l-0.027843,0l-0.014371,0l-0.014371,0l-0.014371,0l-0.014371,0l-0.014371,0l-0.027843,0l0,0l-0.027843,0l0,0l-0.027843,0l-0.014371,0l-0.014371,0l0,0l-0.042214,0l0,0l-0.027843,0l0,0l-0.027843,0.02579l-0.014371,0l-0.014371,0l0,0l-0.042214,0l0,0l-0.056585,0l-0.014371,0l-0.014371,0l0,0l-0.042214,0l-0.056585,0l-0.014371,0l-0.014371,0l-0.014371,0l-0.027843,0l0,0l-0.042214,0l-0.014371,0l-0.027843,0l-0.014371,0l-0.014371,0l0,0l-0.056585,0.013311l-0.014371,0l-0.027843,0l-0.014371,0l-0.014371,0l-0.070058,0.013311l0,0l-0.014371,0l-0.014371,0l-0.027843,0l0,0l-0.070058,0l0,0l-0.014371,0l-0.014371,0l-0.027843,0l0,0l-0.070058,0.02579l0,0l-0.014371,0l-0.014371,0l-0.097901,0l0,0l-0.027843,0l0,0l-0.027843,0l0,0l-0.056585,0l-0.042214,0l0,0l-0.112272,0l0,0c-1.220618,0.064891 -2.427764,0.194674 -3.620538,0.337768c-1.459532,0.168884 -2.497821,1.404315 -2.315492,2.768697c0.168857,1.234599 1.319417,2.144742 2.652307,2.144742l0.336815,0c2.39992,-0.298667 4.855527,-0.44176 7.312032,-0.44176c0.685307,0 1.358937,0 2.019095,0.02579z" class="st0"/>
   <path stroke="null" id="svg_6" fill=" rgb(0, 0, 0)" d="m211.575601,31.809641c-0.449087,-0.884352 -1.417318,-1.404315 -2.39992,-1.404315c-0.406873,0 -0.785902,0.078202 -1.164931,0.260397c-0.883803,0.39018 -1.781977,0.80615 -2.68015,1.24791l-0.154486,0.090681l-0.027843,0.013311l-0.070058,0.02579l0,0l-0.014371,0l0,0l-0.056585,0.052412l0,0l-0.014371,0l-0.014371,0l-0.027843,0l0,0.02579l-0.027843,0.013311l0,0l-0.014371,0.013311l-0.027843,0l0,0l-0.014371,0.013311l-0.014371,0l-0.014371,0.013311l-0.014371,0l-0.014371,0.013311l-0.014371,0.013311l0,0l-0.042214,0l0,0.02579l-0.014371,0l0,0l-0.014371,0.013311l-0.014371,0l-0.027843,0.013311l0,0l-0.014371,0.013311l-0.027843,0.013311l-0.014371,0l-0.014371,0l0,0l-0.023353,0.023294l-0.014371,0l-0.014371,0l0,0l-0.014371,0.02579l-0.014371,0l-0.027843,0.02579l-0.014371,0l0,0.013311l0,0l-0.042214,0.013311l0,0l-0.056585,0.02579l0,0l-0.014371,0l-0.014371,0l-0.056585,0.02579l-0.014371,0.02579l0,0l-0.084428,0.039101c-1.080503,0.572375 -2.133163,1.157229 -3.171451,1.781184c-1.234989,0.741259 -1.571804,2.262045 -0.785902,3.418442c0.519144,0.714637 1.375104,1.130607 2.245434,1.130607c0.505672,0 1.010445,-0.143094 1.445162,-0.41597c2.048734,-1.22212 4.196268,-2.326937 6.371644,-3.301971c1.336483,-0.584022 1.897841,-2.079019 1.266425,-3.301139z" class="st0"/>
   <path stroke="null" id="svg_7" fill=" rgb(0, 0, 0)" d="m216.16437,133.306348c-2.287648,-0.753738 -4.560926,-1.650569 -6.721932,-2.652225c-0.3934,-0.182195 -0.800273,-0.260397 -1.207145,-0.260397c-0.968231,0 -1.908619,0.494172 -2.385549,1.377693c-0.65926,1.19633 -0.112272,2.690495 1.192775,3.301971c0.813745,0.36439 1.641862,0.727948 2.469978,1.092338l0.084428,0.02579l0.014371,0l0.084428,0.02579l0,0l0.027843,0.013311l0.027843,0.013311l0,0.02579l0.027843,0l0,0l0.027843,0l0,0l0.027843,0.02579l0,0l0.014371,0l0.014371,0l0.027843,0.02579l0,0l0.027843,0l0.027843,0l0,0l0.027843,0.013311l0.014371,0.013311l0,0l0.014371,0l0.027843,0.013311l0.014371,0l0.014371,0.013311l0,0l0.027843,0.02579l0,0l0.027843,0l0.014371,0.013311l0.014371,0l0.014371,0l0,0.013311l0.014371,0l0.014371,0.013311l0.042214,0l0,0.013311l0.014371,0l0.014371,0l0.014371,0.013311l0,0l0.027843,0.013311l0.014371,0l0.014371,0l0.014371,0l0.014371,0.02579l0.014371,0l0.027843,0l0.014371,0.013311l0,0l0.014371,0l0.014371,0.013311l0.014371,0l0.056585,0.02579l0.014371,0l0.014371,0l0,0l0.056585,0.039101l0.014371,0l0.014371,0l0,0l0.014371,0.013311l0,0l0.056585,0.02579l0,0l0.014371,0l0.014371,0l0,0.013311l0.014371,0l0.056585,0.013311l0,0l0.027843,0.013311l0,0l0.070058,0.02579l0,0l0.027843,0.013311l0,0l0.056585,0.02579l0,0l0.027843,0.013311l0,0l0.056585,0.013311l0.027843,0.013311l0,0l0.084428,0.039101l0,0l0.084428,0.02579l0,0l0.027843,0.02579l0,0l0.056585,0.013311l0,0l0.027843,0.013311l0.014371,0l0.056585,0.013311l0.014371,0l0.014371,0.02579l0,0l0.014371,0l0,0l0.070058,0.039101l0.014371,0l0.014371,0l0.070058,0.02579l0,0l0.014371,0l0.056585,0.02579l0,0l0.042214,0.013311l0,0l0.056585,0.013311l0.014371,0.02579l0,0l0.070058,0.013311l0,0l0.027843,0.013311l0.014371,0l0.014371,0l0,0l0.056585,0.02579l0,0l0.027843,0.013311l0,0l0.056585,0.02579l0,0l0.027843,0.013311l0.014371,0l0,0l0.014371,0l0.042214,0.013311l0,0l0.014371,0l0.014371,0.013311l0.014371,0l0.014371,0.013311l0.014371,0l0.014371,0.013311l0.014371,0l0.027843,0l0,0l0.014371,0l0.027843,0l0.014371,0.02579l0.014371,0l0.014371,0l0,0l0.014371,0.02579l0.027843,0l0.014371,0.013311l0.014371,0l0,0l0.027843,0.013311l0.014371,0.013311l0.014371,0l0.014371,0.013311l0.014371,0l0.014371,0l0.014371,0l0.014371,0l0.014371,0l0.027843,0.02579l0,0l0.027843,0l0,0.013311l0.027843,0l0,0l0.027843,0.013311l0,0l0.027843,0.013311l0.014371,0l0.014371,0l0,0l0.042214,0.02579l0.014371,0l0.014371,0l0.014371,0.013311l0,0l0.027843,0.013311l0.014371,0l0.014371,0.013311l0,0l0.027843,0l0.014371,0l0.027843,0l0,0l0.056585,0.02579l0,0l0.027843,0.02579l0,0c0.449087,0.156405 0.898174,0.286187 1.319417,0.44176c0.308972,0.078202 0.603573,0.143094 0.898174,0.143094c1.108346,0 2.118792,-0.649745 2.512192,-1.66388c0.453578,-1.295331 -0.276638,-2.712125 -1.666112,-3.141406z" class="st0"/>
   <path stroke="null" id="svg_8" fill=" rgb(0, 0, 0)" d="m189.780517,115.719132c-0.533515,-0.637266 -1.305046,-0.949244 -2.090948,-0.949244c-0.575729,0 -1.164931,0.156405 -1.641862,0.506652c-1.164931,0.845251 -1.375104,2.378517 -0.47693,3.470855c0.47693,0.584854 0.982602,1.143918 1.487376,1.689671l0,0l0.042214,0.052412l0.014371,0.013311l0,0.013311l0.027843,0.052412l0.027843,0l0,0.02579l0.014371,0l0.014371,0l0,0.013311l0.014371,0.013311l0.014371,0l0.014371,0.013311l0.014371,0.013311l0,0.02579l0,0l0.014371,0.013311l0.027843,0.02579l0,0l0.014371,0.013311l0,0l0.014371,0.02579l0,0l0.027843,0.02579l0.014371,0l0,0.013311l0.014371,0l0,0.02579l0,0l0.042214,0.013311l0,0.013311l0.014371,0.013311l0,0l0.027843,0.052412l0.014371,0l0.014371,0.013311l0.014371,0l0.027843,0.039101l0.027843,0.052412c1.05266,1.130607 2.161006,2.222944 3.312465,3.276181c0.519144,0.494172 1.207145,0.727948 1.880776,0.727948c0.688001,0 1.375104,-0.233775 1.894248,-0.727948c1.038289,-0.975034 1.038289,-2.548233 -0.014371,-3.496645c-1.729883,-1.59067 -3.358272,-3.293651 -4.860018,-5.074003z" class="st0"/>
   <path stroke="null" id="svg_9" fill=" rgb(0, 0, 0)" d="m175.35405,79.750196c1.361631,0 2.512192,-0.935933 2.652307,-2.197154c0.252387,-2.248734 0.65926,-4.51078 1.220618,-6.694623c0.336815,-1.326113 -0.561359,-2.652225 -1.993048,-2.976682l-0.603573,-0.064891c-1.220618,0 -2.302019,0.767049 -2.59662,1.910967c-0.603573,2.391828 -1.06703,4.822757 -1.33289,7.318578c-0.140115,1.338592 0.926017,2.560712 2.372077,2.703806l0.281128,0z" class="st0"/>
   <path stroke="null" id="svg_10" fill=" rgb(0, 0, 0)" d="m186.174349,55.260372c1.277203,-1.910967 2.694521,-3.769521 4.224111,-5.537394c0.926017,-1.065715 0.743688,-2.613124 -0.3934,-3.470855c-0.491301,-0.36439 -1.094874,-0.559064 -1.684076,-0.559064c-0.771531,0 -1.543961,0.325289 -2.077476,0.935933c-0.421243,0.494172 -0.85596,1.000824 -1.277203,1.520787l-0.027843,0.039101l-0.014371,0.013311l0,0.013311l-0.056585,0.052412l-0.014371,0l-0.042214,0.078202l0,0.02579l-0.056585,0.052412l0,0l-0.070058,0.052412l0,0.013311l-0.112272,0.129783c-0.701474,0.896832 -1.375104,1.793663 -2.035262,2.717117l0,0l-0.042214,0.064891l0,0.013311l-0.014371,0.013311l0,0l-0.027843,0.039101l0,0l-0.014371,0.02579l0,0l0,0.02579l0,0l-0.027843,0.02579l-0.014371,0.013311l-0.014371,0l-0.014371,0.013311l0,0l-0.014371,0.052412l0,0l-0.014371,0.013311l0,0l-0.014371,0.013311l-0.014371,0.013311l0,0.013311l0,0.013311l-0.014371,0.013311l-0.014371,0.02579l0,0l-0.014371,0l-0.014371,0.013311l0,0.013311l0,0.02579l-0.014371,0.013311l-0.014371,0l-0.014371,0.013311l0,0.02579l-0.014371,0.02579l0,0l-0.014371,0l0,0.013311l-0.027843,0.013311l0,0l-0.027843,0.052412l0,0c-0.168857,0.260397 -0.336815,0.494172 -0.491301,0.741259c-0.771531,1.157229 -0.3934,2.690495 0.85596,3.392652c0.449087,0.260397 0.926017,0.36439 1.403846,0.36439c0.905359,-0.007487 1.775689,-0.410147 2.281361,-1.177195z" class="st0"/>
   <path stroke="null" id="svg_11" fill=" rgb(0, 0, 0)" d="m179.016803,94.413143c-0.281128,-1.157229 -1.389475,-1.936757 -2.610093,-1.936757l-0.575729,0.039101c-1.431689,0.286187 -2.357706,1.598989 -2.035262,2.937581c0.561359,2.44424 1.305046,4.822757 2.189748,7.136383c0.3934,1.000824 1.417318,1.624779 2.512192,1.624779c0.294601,0 0.589202,-0.052412 0.898174,-0.143094c1.389475,-0.455071 2.105319,-1.858554 1.614018,-3.158877c-0.828116,-2.104809 -1.488274,-4.315274 -1.993048,-6.499117z" class="st0"/>
   <path stroke="null" id="svg_12" fill=" rgb(0, 0, 0)" d="m266.841128,127.872947c-0.47693,0 -0.968231,0.129783 -1.417318,0.36439c-2.063105,1.19633 -4.238482,2.287836 -6.427331,3.210457c-1.347261,0.572375 -1.936463,2.040749 -1.33289,3.276181c0.449087,0.896832 1.417318,1.442584 2.427764,1.442584c0.379029,0 0.758059,-0.078202 1.108346,-0.233775c1.487376,-0.623955 2.919065,-1.300323 4.336383,-2.02827l0.027843,0l0,0l0.056585,-0.039101l0,0l0.027843,-0.013311l0,0l0.042214,-0.02579l0.014371,0l0.014371,-0.013311l0,0l0.042214,-0.013311l0,0l0.014371,0l0,0l0.027843,-0.039101l0.014371,0l0.014371,-0.013311l0,0l0.027843,-0.013311l0.014371,0l0.014371,0l0,-0.013311l0.014371,0l0.014371,0l0.027843,-0.02579l0.014371,0l0,0l0.014371,-0.02579l0.027843,0l0,0l0.014371,0l0.027843,-0.02579l0,0l0.027843,0l0,-0.013311l0.014371,-0.013311l0,0l0.042214,-0.013311l0.014371,-0.013311l0,0l0.027843,0l0,0l0.056585,-0.02579l0.014371,0l0.014371,-0.039101c0.67363,-0.351079 1.33289,-0.714637 2.00652,-1.092338c1.24936,-0.727948 1.614018,-2.248734 0.842487,-3.405963c-0.523635,-0.737931 -1.380493,-1.153901 -2.264296,-1.153901z" class="st0"/>
   <path stroke="null" id="svg_13" fill=" rgb(0, 0, 0)" d="m287.190152,110.935476c-0.449087,-0.260397 -0.940388,-0.39018 -1.431689,-0.39018c-0.883803,0 -1.740661,0.39018 -2.259805,1.130607c-1.305046,1.897656 -2.751106,3.743731 -4.32291,5.472503c-0.940388,1.053236 -0.800273,2.613124 0.351186,3.470855c0.491301,0.402659 1.094874,0.584854 1.698447,0.584854c0.758059,0 1.52959,-0.298667 2.035262,-0.871041c1.389475,-1.559888 2.68015,-3.145566 3.887296,-4.809446l0.014371,0l0,-0.02579l0.014371,0l0.027843,-0.02579l0.014371,0l0,-0.039101l0,0l0.027843,-0.02579l0,0l0.014371,-0.02579l0,0l0.014371,-0.013311l0,-0.013311l0.014371,-0.013311l0,0l0.027843,-0.02579l0,-0.013311l0.014371,-0.013311l0,0l0.014371,-0.013311l0,-0.013311l0.014371,-0.02579l0.014371,0l0.014371,-0.02579l0,0l0.014371,-0.02579l0,0l0.014371,-0.013311l0.014371,-0.013311l0.014371,0l0,-0.02579l0,0l0.027843,-0.052412l0.014371,-0.013311l0,-0.013311l0,0l0.042214,-0.039101l0,0l0.014371,-0.013311l0.014371,-0.02579l0.042214,-0.052412l0,0l0.406873,-0.598165c0.781411,-1.14059 0.415854,-2.648898 -0.819134,-3.389324z" class="st0"/>
   <path stroke="null" id="svg_14" fill=" rgb(0, 0, 0)" d="m294.025254,74.628772l0.519144,-0.02579c1.431689,-0.260397 2.372077,-1.573199 2.105319,-2.911791l-0.070058,-0.298667l-0.014371,0l0,-0.013311l0,-0.02579l-0.014371,-0.039101l0,-0.013311l0,-0.013311l0,-0.013311l-0.014371,-0.039101l0,-0.013311l-0.014371,-0.02579l0,0l0,-0.013311l0,-0.02579l0,-0.039101l-0.014371,0l0,-0.013311l0,-0.013311l0,-0.02579l0,0l-0.014371,-0.02579l0,-0.013311l-0.014371,-0.013311l0,-0.013311l0,-0.010815l0,0l0,-0.02579l0,-0.013311l-0.014371,-0.02579l0,-0.013311l-0.014371,-0.02579l0,0l0,-0.013311l0,-0.013311l-0.014371,-0.013311l0,-0.013311l0,-0.02579l-0.014371,0l0,-0.024958l0,0l0,-0.02579l0,0l-0.014371,-0.02579l0,-0.013311l0,-0.013311l0,-0.013311l0,-0.013311l0,0l-0.014371,-0.02579l0,-0.039101l0,-0.013311l-0.00988,-0.024958l0,0l0,-0.052412l0,0l-0.014371,-0.02579l0,-0.013311l-0.027843,-0.064891l0,0l0,-0.039101l-0.014371,-0.064891l0,0l0,-0.02579l0,0l-0.042214,-0.078202l0,0l-0.014371,-0.103993l0,0c-0.308972,-1.2737 -0.67363,-2.521611 -1.06703,-3.769521l-0.027843,-0.090681l-0.070058,-0.168884l0,0l-0.027843,-0.103993l0,0l-0.027843,-0.078202l0,-0.013311l-0.014371,-0.02579l0,0l-0.027843,-0.090681l-0.027843,-0.078202l0,0l0,-0.02579l0,0l-0.027843,-0.052412l0,0l-0.014371,-0.02579l0,-0.013311l-0.014371,-0.039101l0,0l0,-0.039101l0,0l-0.014371,-0.039101l-0.014371,0l0,-0.013311l0,-0.02579l-0.014371,0l-0.014371,-0.02579l0,0l0,-0.02579l0,-0.013311l0,-0.013311l0,-0.013311l-0.014371,0l0,-0.02579l0,-0.02579l0,0l-0.027843,-0.013311l0,-0.013311l0,-0.013311l0,-0.013311l-0.014371,-0.02579l0,0l-0.014371,-0.02579l0,0l0,-0.02579l0,-0.013311l0,-0.013311l-0.014371,-0.013311l0,-0.013311l-0.014371,0l0,-0.02579l0,-0.02579l-0.027843,-0.013311l0,0l0,-0.013311l0,-0.013311l0,-0.013311l-0.014371,0l0,-0.022462l0,0l0,-0.039101l-0.014371,-0.013311l0,0l-0.014371,-0.02579l0,-0.013311l0,-0.013311l-0.014371,0l0,-0.02579l0,-0.013311l-0.014371,-0.013311l0,0l0,-0.039101l0,0l-0.014371,0l0,-0.011647l0,-0.02579l0,0l-0.042214,-0.052412l0,0l0,-0.02579l0,-0.02579l-0.014371,0l0,-0.02579l-0.014371,-0.02579l0,0l-0.014371,-0.02579l0,0l0,0c-0.364659,-1.039925 -1.417318,-1.689671 -2.526563,-1.689671c-0.281128,0 -0.561359,0.039101 -0.85596,0.143094c-1.389475,0.429281 -2.133163,1.820285 -1.669705,3.133087c0.771531,2.118952 1.417318,4.316106 1.894248,6.525739c0.245201,1.181355 1.367919,1.974194 2.617278,1.974194z" class="st0"/>
   <path stroke="null" id="svg_15" fill=" rgb(0, 0, 0)" d="m241.720107,135.932784l-0.294601,0c-2.090948,0.233775 -4.210638,0.337768 -6.315059,0.337768c-0.336815,0 -0.67363,-0.02579 -1.010445,-0.039101l-0.042214,0c-1.445162,0 -2.638834,1.104817 -2.652307,2.44424c-0.027843,1.365214 1.137088,2.48251 2.610093,2.509132c0.281128,0 0.561359,0 0.842487,0l0,0l0.027843,0l0,0l0.042214,0l0,0l0.014371,0l0.014371,0l0.027843,0l0,0l0.027843,0l0.027843,0l0.014371,0l0.014371,0l0.014371,0l0.027843,0l0.027843,0l0,0l0.027843,0l0,0l0.014371,0l0.014371,0l0.014371,0l0.014371,0l0.014371,0l0.014371,0l0.014371,0l0.014371,0l0.014371,0l0,0l0.027843,0l0,0l0.027843,0l0.014371,0l0.014371,0l0.014371,0l0.014371,0l0.014371,0l0,0l0.014371,0l0.042214,0l0.014371,0l0.027843,0l0.014371,0l0.014371,0l0,0l0.027843,0l0,0l0.014371,0l0.014371,0l0.014371,0l0.014371,0l0.027843,0l0,0l0.014371,0l0.014371,0l0.014371,0l0.014371,0l0,0l0.027843,0l0.014371,0l0.014371,0l0,0l0.014371,0l0.056585,0l0,0l0.027843,0l0.014371,0l0.014371,0l0,0l0.014371,0l0.014371,0l0.027843,0l0.014371,0l0,0l0.027843,0l0.014371,0l0.014371,0l0,0l0.014371,0l0.014371,0l0.014371,0l0.014371,0l0,0l0.042214,0l0,0l0.084428,0l0,0l0.014371,0l0,0l0.027843,0l0,0l0.027843,0l0.014371,0l0.014371,0l0.014371,0l0.014371,0l0,0l0.014371,0l0.014371,0l0.027843,0l0,0l0.014371,0l0.014371,0l0.027843,0l0.014371,0l0.014371,0l0,0l0.097901,0l0.027843,0l0.014371,0l0.027843,0l0,0l0.014371,0l0,0l0.027843,0l0.014371,0l0.014371,0l0,0l0.027843,0l0,0l0.027843,0l0,0l0.027843,0l0,0l0.224543,-0.02579l0.014371,0l0.027843,0c1.656232,-0.052412 3.312465,-0.156405 4.954326,-0.311978c1.459532,-0.129783 2.512192,-1.377693 2.357706,-2.717117c-0.184126,-1.261221 -1.334686,-2.197154 -2.668474,-2.197154z" class="st0"/>
   <path stroke="null" id="svg_16" fill=" rgb(0, 0, 0)" d="m295.049172,87.394063l-0.308972,-0.02579c-1.33289,0 -2.484349,0.922622 -2.652307,2.183843c-0.294601,2.222944 -0.743688,4.458368 -1.347261,6.655522c-0.351186,1.326113 0.519144,2.652225 1.936463,2.989993l0.65926,0.090681c1.192775,0 2.259805,-0.741259 2.567879,-1.871866c0.140115,-0.494172 0.281128,-0.975034 0.3934,-1.508308l0,0l0,-0.013311l0,0l0.027843,-0.052412l0,-0.02579l0,-0.013311l0.014371,0l0,-0.013311l0,-0.02579l0,-0.013311l0.014371,-0.013311l0,0l0,-0.02579l0,0l0,-0.02579l0,-0.02579l0.014371,0l0.014371,-0.013311l0,-0.013311l0,-0.013311l0,-0.013311l0,-0.02579l0,0l0.014371,-0.013311l0,-0.013311l0,-0.013311l0,-0.02579l0,-0.013311l0.014371,-0.02579l0,0l0.014371,-0.052412l0,0l0,-0.02579l0,0l0,-0.02579l0.027843,-0.052412l0,0l0,-0.02579l0,0l0.027843,-0.090681c0.379029,-1.66388 0.688001,-3.353551 0.898174,-5.069844c0.181431,-1.348575 -0.856858,-2.584006 -2.330761,-2.739579z" class="st0"/>
   <path stroke="null" id="svg_17" fill=" rgb(0, 0, 0)" d="m262.897247,36.203949c0.954759,0 1.880776,-0.480861 2.357706,-1.326113c0.688001,-1.19633 0.182329,-2.690495 -1.122717,-3.327761c-1.614018,-0.78036 -3.270251,-1.494997 -4.967799,-2.144742l0,0l-0.097901,-0.039101l0,0l-0.014371,-0.013311l0,0l-0.056585,-0.02579l-0.042214,0l0,0l-0.042214,-0.02579l-0.042214,0l0,0l-0.084428,-0.039101l0,0l-0.097901,-0.039101l0,0l-0.014371,0l-0.056585,-0.039101l-0.014371,0l-0.014371,-0.013311l0,0l-0.056585,-0.013311l0,0l-0.042214,-0.02579l-0.056585,-0.013311l0,0l-0.027843,0l0,-0.013311l-0.097901,-0.02579l-0.070058,-0.02579l0,0c-0.47693,-0.182195 -0.940388,-0.337768 -1.403846,-0.494172c-0.308972,-0.117304 -0.631416,-0.168884 -0.926017,-0.168884c-1.080503,0 -2.105319,0.623955 -2.512192,1.624779c-0.505672,1.2737 0.1967,2.703806 1.586175,3.158877c2.273278,0.792839 4.518712,1.702982 6.680616,2.756218c0.395196,0.195506 0.81644,0.273708 1.236785,0.273708z" class="st0"/>
   <path stroke="null" id="svg_18" fill=" rgb(0, 0, 0)" d="m283.177112,52.166386c0.546988,0 1.108346,-0.168884 1.599647,-0.494172c1.164931,-0.80615 1.403846,-2.366038 0.519144,-3.457544c-0.898174,-1.104817 -1.838562,-2.183843 -2.806793,-3.223768l0,0l-0.042214,-0.039101l0,0l-0.014371,-0.013311l0,-0.013311l-0.056585,-0.039101l0,0l-0.014371,-0.02579l0,0l-0.014371,-0.013311l0,0l-0.027843,-0.02579l0,0l-0.014371,-0.02579l0,0l-0.012574,-0.012479l-0.014371,0l-0.027843,-0.02579l0,0l-0.014371,-0.013311l0,-0.013311l-0.014371,-0.013311l0,-0.013311l-0.014371,-0.013311l-0.014371,0l-0.014371,-0.013311l0,-0.013311l-0.014371,-0.013311l-0.014371,0l-0.014371,-0.02579l-0.014371,-0.013311l0,-0.013311l-0.014371,0l-0.014371,-0.013311l0,0l-0.014371,-0.02579l-0.014371,-0.013311l-0.014371,-0.013311l0,0l-0.014371,-0.013311l-0.014371,-0.013311l-0.014371,-0.013311l-0.014371,0l0,-0.02579l-0.014371,0l0,-0.013311l-0.056585,-0.039101l0,0l-0.014371,-0.013311l0,0l-0.042214,-0.052412l0,0l-0.014371,-0.02579l0,0l-0.042214,-0.039101l0,-0.013311l-0.027843,-0.013311l0,0l-0.042214,-0.039101l0,0l-0.014371,-0.013311l0,-0.013311l-0.042214,-0.039101l0,0l-0.014371,-0.02579l-0.014371,0l-0.056585,-0.052412l0,0l-0.056585,-0.052412l0,-0.02579l-0.126642,-0.117304l0,-0.013311c-0.434716,-0.41597 -0.87033,-0.85773 -1.319417,-1.287012c-0.533515,-0.494172 -1.220618,-0.741259 -1.92299,-0.741259c-0.65926,0 -1.33289,0.233775 -1.852932,0.702158c-1.05266,0.935933 -1.080503,2.509132 -0.042214,3.484166c1.684076,1.624779 3.283723,3.353551 4.757626,5.148046c0.51645,0.657233 1.316723,0.995001 2.144839,0.995001z" class="st0"/>
  </g>
 </g>
</svg>